<?xml version="1.0" encoding="UTF-8"?>
<svg id="Layer_1" xmlns="http://www.w3.org/2000/svg" xmlns:xlink="http://www.w3.org/1999/xlink" version="1.1" viewBox="0 0 2000 350">
  <!-- Generator: Adobe Illustrator 29.5.1, SVG Export Plug-In . SVG Version: 2.1.0 Build 141)  -->
  <defs>
    <style>
      .st0 {
        fill: url(#linear-gradient2);
      }

      .st1 {
        fill: url(#linear-gradient1);
      }

      .st2 {
        fill: url(#linear-gradient3);
      }

      .st3 {
        fill: url(#linear-gradient);
      }

      .st4 {
        fill: #fff;
      }
    </style>
    <linearGradient id="linear-gradient" x1="264.4" y1="170.8" x2="1098.7" y2="469.8" gradientUnits="userSpaceOnUse">
      <stop offset="0" stop-color="#78bc65"/>
      <stop offset="0" stop-color="#78bc65"/>
      <stop offset="1" stop-color="#4db15f"/>
    </linearGradient>
    <linearGradient id="linear-gradient1" x1="297.1" y1="79.6" x2="1131.4" y2="378.6" gradientUnits="userSpaceOnUse">
      <stop offset="0" stop-color="#78bc65"/>
      <stop offset="0" stop-color="#78bc65"/>
      <stop offset=".4" stop-color="#6ab863"/>
      <stop offset="1" stop-color="#4db15f"/>
    </linearGradient>
    <linearGradient id="linear-gradient2" x1="348.4" y1="-65" x2="1182.7" y2="233.9" xlink:href="#linear-gradient"/>
    <linearGradient id="linear-gradient3" x1="232.7" y1="259.4" x2="1067" y2="558.3" xlink:href="#linear-gradient"/>
  </defs>
  <path class="st4" d="M1302,96.4c11.8-11.8,25.1-20.7,39.9-26.8,14.8-6.1,30.4-9.1,46.7-9.1s36.9,3.5,53.6,10.5c16.7,7,31.3,16.9,43.6,29.6,12.3,12.7,22,27.9,29.1,45.6,7,17.7,10.5,37,10.5,57.9s-3.5,40.1-10.5,57.6c-7,17.5-16.7,32.6-29.1,45.3-12.4,12.7-26.9,22.6-43.6,29.6-16.7,7-34.6,10.5-53.6,10.5s-32-3-47-9.1c-15-6.1-28.4-15.2-40.2-27.4l-5.1,31.9h-62.7V2.3h68.4v94.1ZM1302,199.8c0,11.8,2.1,22.4,6.3,31.9,4.2,9.5,9.8,17.7,16.8,24.5,7,6.8,15.4,12.1,25.1,15.7,9.7,3.6,20,5.4,31.1,5.4s20.7-1.8,30.2-5.4c9.5-3.6,17.8-8.8,24.8-15.7,7-6.8,12.5-15,16.5-24.5,4-9.5,6-20.1,6-31.9s-2-23-6-32.5c-4-9.5-9.5-17.7-16.5-24.5-7-6.8-15.3-12.1-24.8-15.7-9.5-3.6-19.6-5.4-30.2-5.4s-21.4,1.8-31.1,5.4c-9.7,3.6-18.1,8.8-25.1,15.7-7,6.8-12.6,15-16.8,24.5-4.2,9.5-6.3,20.3-6.3,32.5Z"/>
  <path class="st4" d="M1831.1,242.3c-2.3,15.6-7.8,29.8-16.5,42.8-8.7,12.9-19.5,23.9-32.2,33.1-12.7,9.1-26.9,16.2-42.5,21.4-15.6,5.1-31.7,7.7-48.5,7.7s-38.5-3.5-56.2-10.5c-17.7-7-33-16.9-45.9-29.6-12.9-12.7-23.2-27.8-30.8-45.3-7.6-17.5-11.4-36.7-11.4-57.6s3.8-40.2,11.4-57.9c7.6-17.7,17.9-32.9,30.8-45.6,12.9-12.7,28.2-22.6,45.9-29.6,17.7-7,36.4-10.5,56.2-10.5s39.9,3.1,57,9.4c17.1,6.3,31.8,15.2,44.2,26.8,12.3,11.6,22.1,25.7,29.4,42.2,7.2,16.5,11,35.1,11.4,55.6v26.2h-216.6c3.4,18.6,12.1,33.3,25.9,43.9,13.9,10.6,30.1,16,48.7,16s27.6-3.3,39.6-10c12-6.6,21-16.1,27.1-28.2h73ZM1755.3,162.2c-5.7-12.2-14.2-21.8-25.4-28.8-11.2-7-24-10.5-38.5-10.5s-28.2,3.5-40.2,10.5c-12,7-21.2,16.6-27.6,28.8h131.7Z"/>
  <path class="st4" d="M1844.2,67.9h17.1l5.7-61h62.7v61h46.7v65.6h-46.7v106.6c0,15.2,2.8,25.9,8.6,32.2,5.7,6.3,15.6,9.4,29.6,9.4h11.4v65.6h-20.5c-31.6,0-55.7-9.2-72.4-27.6-16.7-18.4-25.1-44.9-25.1-79.5v-106.6h-17.1v-65.6Z"/>
  <g>
    <path class="st3" d="M216.1,81.2h63.6v141c0,22.4,4.6,38.6,13.9,48.6,9.3,10,22.8,15,40.6,15s21.5-2,30.4-6.1c8.9-4.1,16.4-8.6,22.4-13.6,7.1-5.7,13.4-12.1,18.7-19.2V81.2h64.1v261.8h-56.1l-6.9-34.7c-11,12.5-23.7,22.1-37.9,28.8-14.2,6.8-30.3,10.1-48.1,10.1s-29.4-2.8-42.2-8.3c-12.8-5.5-23.9-13.2-33.1-23-9.3-9.8-16.5-21.4-21.6-34.7-5.2-13.4-7.7-27.9-7.7-43.5V81.2Z"/>
    <path class="st1" d="M916.7,342.9h-64.1v-138.9c0-22.4-4.5-38.7-13.4-48.9-8.9-10.1-21.4-15.2-37.4-15.2s-31.3,4.6-42.7,13.9c-11.4,9.3-19.1,21.2-23,35.8v-.5,153.9h-64.1v-138.9c0-22.4-4.5-38.7-13.4-48.9-8.9-10.1-21.4-15.2-37.4-15.2s-19.6,1.9-27.8,5.6c-8.2,3.7-15.1,8.1-20.8,13.1-6.4,5.3-12.1,11.6-17.1,18.7v165.6h-64.1V81.2h58.8l5.3,32.6c20.7-23.5,47.4-35.3,80.1-35.3s36.9,4.8,52.1,14.4c15.1,9.6,26.8,22.6,35,39,11-17.4,24.3-30.7,39.8-39.8,15.5-9.1,33.4-13.6,53.7-13.6s28,2.8,40.3,8.3c12.3,5.5,22.9,13.2,31.8,23,8.9,9.8,15.8,21.4,20.8,34.7,5,13.4,7.5,27.9,7.5,43.5v154.9Z"/>
    <path class="st0" d="M1148.4,313c-11,11.4-23.6,19.9-37.7,25.6-14.1,5.7-28.8,8.5-44.1,8.5s-34.5-3.3-50.2-9.9c-15.7-6.6-29.3-15.8-40.9-27.8-11.6-11.9-20.7-26.1-27.2-42.5-6.6-16.4-9.9-34.4-9.9-54s3.3-37.7,9.9-54.2c6.6-16.6,15.7-30.8,27.2-42.7,11.6-11.9,25.2-21.2,40.9-27.8,15.7-6.6,32.4-9.9,50.2-9.9s29.9,2.9,43.8,8.5c13.9,5.7,26.4,14.1,37.4,25.1v-31h64.1v261.8h-58.8l-4.8-29.9ZM1147.8,213.1c0-11.4-2-21.5-5.9-30.4-3.9-8.9-9.2-16.6-15.8-23-6.6-6.4-14.4-11.3-23.5-14.7-9.1-3.4-18.8-5.1-29.1-5.1s-19.4,1.7-28.3,5.1c-8.9,3.4-16.7,8.3-23.2,14.7-6.6,6.4-11.8,14.1-15.5,23-3.7,8.9-5.6,19.1-5.6,30.4s1.9,21,5.6,29.9c3.7,8.9,8.9,16.6,15.5,23,6.6,6.4,14.3,11.3,23.2,14.7,8.9,3.4,18.3,5.1,28.3,5.1s20-1.7,29.1-5.1c9.1-3.4,16.9-8.3,23.5-14.7,6.6-6.4,11.8-14.1,15.8-23,3.9-8.9,5.9-18.9,5.9-29.9Z"/>
    <path class="st2" d="M6.9,342.9v-61.4l108.4-138.9H9v-61.4h185.4v61.4l-108.4,138.9h111.1v61.4H6.9Z"/>
  </g>
</svg>